<svg height="95.75908mm" viewBox="0 0 222.74999 271.44308" width="78.58125mm" xmlns="http://www.w3.org/2000/svg" xmlns:xlink="http://www.w3.org/1999/xlink"><linearGradient id="a" gradientUnits="userSpaceOnUse" x1="5.4125" x2="225.41224" y1="80.93749" y2="182.93759"><stop offset=".05" stop-color="#f08300"/><stop offset=".35" stop-color="#aacf52"/><stop offset=".6" stop-color="#00b9ef"/><stop offset=".97" stop-color="#e74291"/></linearGradient><path d="m177.25 103.23474c-37.9463-25.2974-48.417-41.32422-48.417-63.5835 0-8.5015 2.3271-17.1587 8.917-28.5415 4.374-7.5547 2.3447-12.2363-9-10.875-68.4239 8.2109-128.75 49.51465-128.75 100 0 23.0806 8.9472 49.4268 39.5 71.25 33.5039 23.9312 45.8945 35.0977 52.1669 47.5 7.334 14.5 10.59092 27.3286 12.167 39 1.7598 13.0264 5.6211 16.3789 22.833 11 62.0411-19.3857 96.0831-51.1587 96.0831-91 0-26.5361-13.793-53.6118-45.5-74.75zm-79.5831-65.25c.4903 11.52197 3.6016 23.43604 8.5918 34.3462-14.8603-5.86085-30.54388-12.72218-43.1084-19.0547 10.93852-7.2519 23.1416-12.7505 34.5166-15.2915zm-55.3125 33.1616c27.0606 14.9395 73.1045 32.9492 94.19541 38.5396 10.38178 8.3037 21.207 15.0888 29.78408 21.9653 6.9883 5.603 12.42292 10.8853 16.5235 16.3667-48.9688-10.2588-108.5303-33.6738-151.3789-59.9331 2.373-5.8018 6.1347-11.5288 10.8759-16.9385zm83.7706 168.9634c-.875-10.625-3.2706-21.1841-7.8477-31.3892 15.7461 5.2007 32.2617 10.2061 46.0322 13.9615-11.0361 7.7363-23.8164 13.9062-38.1845 17.4277zm59.6572-38.2656c-37.6153-8.7154-79.2666-21.6597-109.2822-39.542-23.5508-14.0322-37.9883-29.4712-44.2247-44.2246 48.3653 26.9033 111.4356 49.7324 160.6797 57.7539.1416 1.9238.2119 3.915.2119 5.9868 0 6.3301-2.6806 13.2207-7.3847 20.0259z" fill="url(#a)"/></svg>